<svg width="17" height="17" viewBox="0 0 17 17" fill="none" xmlns="http://www.w3.org/2000/svg">
<path fill-rule="evenodd" clip-rule="evenodd" d="M0.976562 8.83649C0.976563 8.53466 1.08191 8.24519 1.26942 8.03176C1.45694 7.81833 1.71126 7.69843 1.97645 7.69843L13.5612 7.69843L9.26764 2.8139C9.17467 2.70808 9.10093 2.58247 9.05061 2.44422C9.0003 2.30597 8.97441 2.15779 8.97441 2.00815C8.97441 1.85851 9.0003 1.71034 9.05061 1.57209C9.10093 1.43384 9.17467 1.30822 9.26764 1.20241C9.3606 1.0966 9.47097 1.01266 9.59243 0.955396C9.7139 0.898131 9.84408 0.868658 9.97556 0.868658C10.107 0.868658 10.2372 0.898131 10.3587 0.955396C10.4801 1.01266 10.5905 1.0966 10.6835 1.20241L16.6828 8.03075C16.7759 8.13646 16.8498 8.26205 16.9002 8.40031C16.9506 8.53857 16.9766 8.6868 16.9766 8.83649C16.9766 8.98618 16.9506 9.13441 16.9002 9.27267C16.8498 9.41093 16.7759 9.53652 16.6828 9.64223L10.6835 16.4706C10.4957 16.6843 10.2411 16.8043 9.97556 16.8043C9.71003 16.8043 9.45539 16.6843 9.26764 16.4706C9.07988 16.2569 8.97441 15.967 8.97441 15.6648C8.97441 15.3626 9.07988 15.0728 9.26764 14.8591L13.5612 9.97455L1.97645 9.97455C1.71126 9.97455 1.45694 9.85464 1.26942 9.64122C1.08191 9.42779 0.976562 9.13832 0.976562 8.83649Z" fill="#1A1A1A"/>
</svg>
