<svg width="51" height="51" viewBox="0 0 51 51" fill="none" xmlns="http://www.w3.org/2000/svg">
<path d="M47.5449 39.0762L39.6266 31.1578L33.5359 28.6415C35.5639 25.7576 36.6504 22.317 36.6465 18.7914C36.6465 9.31417 28.9362 1.60391 19.459 1.60391C9.98174 1.60391 2.27148 9.31417 2.27148 18.7914C2.27148 28.2687 9.98174 35.9789 19.459 35.9789C23.0153 35.983 26.4843 34.8777 29.3827 32.8171L31.8925 38.8913L39.8105 46.8101C40.3184 47.3179 40.9212 47.7208 41.5847 47.9956C42.2482 48.2705 42.9594 48.412 43.6776 48.412C44.3957 48.412 45.1069 48.2706 45.7704 47.9958C46.4339 47.7209 47.0368 47.3181 47.5447 46.8103C48.0525 46.3025 48.4554 45.6996 48.7302 45.0361C49.0051 44.3726 49.1466 43.6615 49.1466 42.9433C49.1466 42.2251 49.0052 41.514 48.7304 40.8504C48.4555 40.1869 48.0527 39.584 47.5449 39.0762ZM5.39648 18.7914C5.39648 11.0375 11.7051 4.72891 19.459 4.72891C27.2129 4.72891 33.5215 11.0375 33.5215 18.7914C33.5215 26.5453 27.2129 32.8539 19.459 32.8539C11.7051 32.8539 5.39648 26.5453 5.39648 18.7914ZM45.3351 44.6004C44.8952 45.0393 44.2991 45.2858 43.6777 45.2858C43.0563 45.2858 42.4603 45.0393 42.0204 44.6004L34.5427 37.1227L32.2093 31.4747L37.8574 33.8081L45.3353 41.2858C45.7741 41.7258 46.0205 42.3218 46.0205 42.9432C46.0205 43.5645 45.774 44.1605 45.3351 44.6004Z" fill="black"/>
</svg>
