<svg width="45" height="45" viewBox="0 0 45 45" fill="none" xmlns="http://www.w3.org/2000/svg">
<g clip-path="url(#clip0_115_16)">
<path fill-rule="evenodd" clip-rule="evenodd" d="M22.7441 0.456055C34.8948 0.456055 44.7441 10.3054 44.7441 22.4561C44.7441 34.6068 34.8948 44.4561 22.7441 44.4561C10.5934 44.4561 0.744141 34.6068 0.744141 22.4561C0.744141 10.3054 10.5934 0.456055 22.7441 0.456055Z" fill="url(#paint0_linear_115_16)"/>
<path fill-rule="evenodd" clip-rule="evenodd" d="M22.745 26.7033C20.3989 26.7033 18.4971 24.8024 18.4971 22.4563C18.4971 20.1102 20.3989 18.2092 22.7441 18.2092C25.0902 18.2092 26.992 20.1102 26.992 22.4563C26.992 24.8015 25.0902 26.7033 22.7441 26.7033H22.745ZM17.4908 9.7908C12.7668 10.0065 10.2849 12.6637 10.0795 17.2029C9.92141 20.6387 9.92141 24.2739 10.0795 27.7105C10.2849 32.2489 12.7668 34.9069 17.4908 35.1217C20.9274 35.279 24.5617 35.279 27.9984 35.1217C32.5376 34.9146 35.1939 32.4362 35.4105 27.7105C35.5669 24.273 35.566 20.6404 35.4105 17.2029C35.1991 12.576 32.6252 10.0013 27.9984 9.7908C24.5617 9.63354 20.9274 9.63354 17.4908 9.7908ZM27.8935 12.0845C31.3259 12.2409 32.9613 13.8746 33.1168 17.3069C33.2715 20.6722 33.2706 24.2403 33.1168 27.6056C32.957 31.1368 31.2373 32.676 27.8935 32.8289C24.5273 32.9819 20.9618 32.9819 17.5956 32.8289C14.2518 32.676 12.533 31.1368 12.3723 27.6056C12.2185 24.2403 12.2185 20.6722 12.3723 17.3069C12.5245 13.9631 14.0645 12.246 17.5956 12.0845C20.9618 11.9306 24.5273 11.9298 27.8935 12.0845ZM31.0758 15.6543C31.0758 16.4982 30.3909 17.1831 29.547 17.1831C28.7013 17.1831 28.0173 16.4991 28.0173 15.6543C28.0173 14.8096 28.7013 14.1255 29.547 14.1255C30.3909 14.1246 31.0758 14.8096 31.0758 15.6543ZM22.745 15.913C19.1313 15.913 16.2009 18.8426 16.2009 22.4563C16.2009 26.0699 19.1313 28.9996 22.7441 28.9996C26.3587 28.9996 29.2883 26.0699 29.2883 22.4563C29.2883 18.8426 26.3587 15.913 22.745 15.913Z" fill="white"/>
</g>
<defs>
<linearGradient id="paint0_linear_115_16" x1="6.57328" y1="7.53902" x2="41.4948" y2="33.97" gradientUnits="userSpaceOnUse">
<stop stop-color="#904A97"/>
<stop offset="1" stop-color="#F7B648"/>
</linearGradient>
<clipPath id="clip0_115_16">
<rect width="44" height="44" fill="white" transform="translate(0.744141 0.456055)"/>
</clipPath>
</defs>
</svg>
