<svg width="25" height="25" viewBox="0 0 25 25" fill="none" xmlns="http://www.w3.org/2000/svg">
<path d="M19.704 20.7783C11.173 20.7903 4.69804 14.2383 4.70704 5.78132C4.70704 5.22832 5.15504 4.77832 5.70704 4.77832H8.34704C8.84204 4.77832 9.26304 5.14232 9.33604 5.63232C9.51014 6.80737 9.85196 7.95137 10.351 9.02932L10.454 9.25132C10.5232 9.40071 10.5381 9.56956 10.4961 9.72875C10.4541 9.88794 10.3579 10.0275 10.224 10.1233C9.40604 10.7073 9.09404 11.8823 9.73104 12.7983C10.533 13.9516 11.534 14.9529 12.687 15.7553C13.604 16.3913 14.779 16.0793 15.362 15.2623C15.4578 15.128 15.5974 15.0315 15.7569 14.9893C15.9163 14.9471 16.0854 14.962 16.235 15.0313L16.456 15.1333C17.534 15.6333 18.678 15.9753 19.853 16.1493C20.343 16.2223 20.707 16.6433 20.707 17.1393V19.7783C20.707 19.9097 20.6811 20.0398 20.6308 20.1612C20.5805 20.2826 20.5068 20.3929 20.4138 20.4858C20.3208 20.5787 20.2105 20.6523 20.089 20.7025C19.9676 20.7527 19.8374 20.7785 19.706 20.7783H19.704Z" fill="#800000"/>
</svg>
