<svg width="22" height="33" viewBox="0 0 22 33" fill="none" xmlns="http://www.w3.org/2000/svg">
<path d="M14.7296 30.4557L8.59747 32.3259C8.16058 32.4591 7.70743 32.1613 7.59034 31.664C7.47333 31.1668 7.73496 30.651 8.17178 30.5178L14.3039 28.6477C14.7408 28.5145 15.1939 28.8122 15.311 29.3094C15.4282 29.8067 15.1664 30.3225 14.7296 30.4557ZM11.8904 9.00702C11.8354 9.85783 11.4126 10.3374 10.7561 10.3252C10.1025 10.3132 9.62686 9.80339 9.64254 9.02702C9.65777 8.27161 10.0739 7.77539 10.7818 7.78421C11.4892 7.79287 11.8399 8.26865 11.8904 9.00702ZM19.7518 6.13962C17.3124 1.55384 12.4808 -0.674229 7.99209 0.818436C4.06387 2.12481 1.50261 5.07695 0.571305 9.61717C-0.3505 14.1109 0.796876 17.9761 3.70072 21.2131C4.38173 21.9723 5.00787 22.8918 5.39178 23.8731C5.77667 24.8566 5.90006 25.1642 6.83755 24.906C8.13956 24.5474 9.42413 24.1069 10.7259 23.747C11.3932 23.5625 11.6468 23.1384 11.6423 22.3727C11.6245 19.2823 11.6305 16.1918 11.6404 13.1013C11.6425 12.4018 11.4494 11.8258 10.7881 11.8083C10.1187 11.7906 9.91373 12.3473 9.91933 13.0605C9.93482 15.0641 9.92402 17.0679 9.92389 19.0716C9.92382 22.2949 9.92389 22.2949 7.13927 22.758C6.08066 21.3774 5.11668 20.1364 4.16813 18.8802C0.763749 14.3716 1.38631 7.70672 5.63525 4.2548C8.6878 1.77473 11.967 1.63673 15.2363 3.73073C18.2719 5.67517 19.9234 9.68109 19.4857 13.5563C19.1933 16.145 18.1072 18.2115 16.4963 19.9878C15.5242 21.0599 14.6383 22.2141 14.3194 23.7643C14.1702 24.4893 13.8131 24.8489 13.196 25.022C13.3113 24.9 6.54456 27.058 6.54456 27.058C6.11646 27.1886 5.8601 27.694 5.97484 28.1812L5.99248 28.2566C6.10722 28.7437 6.55126 29.0356 6.97937 28.9051C6.97937 28.9051 14.7435 26.5304 14.8453 26.4976C15.5643 26.2717 15.9556 25.6891 15.972 24.8575C15.9965 23.6161 16.4704 22.6499 17.2416 21.8251C17.6545 21.3834 18.0656 20.9379 18.4541 20.4691C21.661 16.5978 22.1903 10.7238 19.7518 6.13954V6.13962Z" fill="black"/>
</svg>
