<svg width="33" height="33" viewBox="0 0 33 33" fill="none" xmlns="http://www.w3.org/2000/svg">
<g clip-path="url(#clip0_105_650)">
<path d="M10.0801 20.8052H6.08008V16.8052H10.0801V20.8052ZM30.0801 12.8052V30.8052H2.08008V12.8052H4.08008V22.8052H28.0801V12.8052H30.0801ZM14.0801 24.8052H10.0801V28.8052H14.0801V24.8052ZM22.0801 24.8052H18.0801V28.8052H22.0801V24.8052ZM14.0801 16.8052H18.0801V20.8052H14.0801V16.8052ZM26.0801 20.8052H22.0801V16.8052H26.0801V20.8052ZM15.0801 15.2114L10.377 10.5083L11.7832 9.10205L14.0801 11.3833V0.805176H16.0801V11.3833L18.377 9.10205L19.7832 10.5083L15.0801 15.2114Z" fill="black"/>
</g>
<defs>
<clipPath id="clip0_105_650">
<rect width="32" height="32" fill="white" transform="translate(0.0800781 0.805176)"/>
</clipPath>
</defs>
</svg>
