<svg width="33" height="33" viewBox="0 0 33 33" fill="none" xmlns="http://www.w3.org/2000/svg">
<g clip-path="url(#clip0_105_653)">
<path d="M8.03906 16.22V24.7444H16.5635L14.7857 22.9666H9.81684V17.9977L8.03906 16.22Z" fill="#111111"/>
<path d="M31.0342 29.4467L28.4831 26.86V29.1889H3.5942V25.5H5.37198V24.0778H3.5942V18.1667H5.37198V16.7445H3.5942V11.0556H5.37198V9.63334H3.5942V4.66445L17.7631 18.7533V16.2467L3.33642 1.89112C3.21209 1.76576 3.05325 1.68027 2.88014 1.64554C2.70703 1.61081 2.5275 1.62842 2.36444 1.69612C2.20138 1.76383 2.06217 1.87856 1.96457 2.02569C1.86697 2.17282 1.81539 2.34568 1.81642 2.52223V30.0778C1.81642 30.3135 1.91007 30.5396 2.07677 30.7063C2.24347 30.873 2.46956 30.9667 2.70531 30.9667H30.4031C30.5796 30.9677 30.7525 30.9161 30.8996 30.8185C31.0468 30.7209 31.1615 30.5817 31.2292 30.4187C31.2969 30.2556 31.3145 30.0761 31.2798 29.903C31.2451 29.7299 31.1596 29.571 31.0342 29.4467Z" fill="#111111"/>
<path d="M21.3715 27.411H24.9271C25.3986 27.411 25.8508 27.2237 26.1842 26.8903C26.5176 26.5569 26.7049 26.1047 26.7049 25.6332V8.47767L24.6604 4.71767C24.5023 4.44374 24.274 4.21694 23.999 4.06069C23.724 3.90444 23.4122 3.82438 23.096 3.82879C22.7725 3.83135 22.4559 3.9221 22.1803 4.09127C21.9046 4.26043 21.6803 4.50159 21.5315 4.78879L19.5938 8.49545V25.6332C19.5938 26.1047 19.7811 26.5569 20.1144 26.8903C20.4478 27.2237 20.9 27.411 21.3715 27.411ZM21.3715 8.92212L23.096 5.57101L24.9271 8.93101V22.0777H21.3715V8.92212ZM21.3715 23.5266H24.9271V25.6955H21.3715V23.5266Z" fill="#111111"/>
</g>
<defs>
<clipPath id="clip0_105_653">
<rect width="32" height="32" fill="white" transform="translate(0.0390625 0.744385)"/>
</clipPath>
</defs>
</svg>
