<svg width="51" height="33" viewBox="0 0 51 33" fill="none" xmlns="http://www.w3.org/2000/svg">
<g clip-path="url(#clip0_105_671)">
<path d="M4.20686 19.7206C4.76646 19.7206 5.15819 19.4862 5.38203 19.0172C5.60587 18.5483 5.60587 18.0793 5.38203 17.6103C5.15819 17.1414 4.76646 16.9069 4.20686 16.9069C3.64726 16.9069 3.25554 17.1414 3.0317 17.6103C2.80786 18.0793 2.80786 18.5483 3.0317 19.0172C3.25554 19.4862 3.64726 19.7206 4.20686 19.7206ZM35.1178 18.4457C34.9779 18.2552 34.7086 17.8888 34.3099 17.3465C33.9112 16.8043 33.6209 16.4086 33.439 16.1595C33.2572 15.9104 32.9913 15.5513 32.6416 15.0824C32.2918 14.6134 31.9946 14.225 31.7497 13.9173C31.5049 13.6095 31.2216 13.2651 30.8998 12.8841C30.5781 12.5031 30.2633 12.144 29.9555 11.807L27.3324 14.8845C26.1712 16.2621 24.7127 16.9362 22.957 16.9069C21.2013 16.8776 19.7638 16.1595 18.6446 14.7526C17.8471 13.7414 17.4519 12.5837 17.4589 11.2794C17.4659 9.97511 17.8751 8.8247 18.6865 7.82817L22.4009 3.29979C22.0931 3.13859 21.7364 3.01768 21.3307 2.93708C20.9249 2.85648 20.5927 2.81252 20.3339 2.80519C20.0751 2.79786 19.6798 2.80152 19.1482 2.81618C18.6166 2.83083 18.2738 2.83816 18.1199 2.83816C16.8329 2.83816 15.7277 3.32177 14.8043 4.289L11.4887 7.76222H8.23599V19.7206C8.30594 19.7206 8.45284 19.717 8.67668 19.7097C8.90052 19.7023 9.05441 19.7023 9.13835 19.7097C9.22229 19.717 9.35869 19.7316 9.54756 19.7536C9.73642 19.7756 9.87982 19.8086 9.97775 19.8525C10.0757 19.8965 10.1981 19.9588 10.345 20.0394C10.4919 20.12 10.6213 20.2189 10.7332 20.3362L16.9658 26.755C18.5746 28.3817 20.1625 29.1951 21.7294 29.1951C22.8206 29.1951 23.695 28.8507 24.3525 28.1619C25.1499 28.455 25.9369 28.3964 26.7133 27.986C27.4898 27.5757 27.9969 26.9529 28.2347 26.1175C29.27 26.2055 30.1584 25.883 30.8998 25.1503C31.1796 24.8865 31.4315 24.5531 31.6553 24.1501C31.8791 23.7471 31.9771 23.3771 31.9491 23.04C32.089 23.1865 32.3898 23.2598 32.8514 23.2598C33.453 23.2598 33.9916 23.1059 34.4673 22.7982C34.943 22.4904 35.2892 22.1021 35.5061 21.6331C35.7229 21.1642 35.8068 20.6402 35.7579 20.0614C35.7089 19.4825 35.4956 18.9439 35.1178 18.4457ZM38.4545 19.7206H40.469V8.46566H38.5174L35.2228 4.50882C34.2994 3.39505 33.1173 2.83816 31.6763 2.83816H28.1718C26.9267 2.83816 25.9054 3.3291 25.108 4.31098L20.7221 9.65271C20.3304 10.1363 20.1345 10.6859 20.1345 11.3014C20.1345 11.9169 20.3234 12.4665 20.7011 12.9501C21.3027 13.6975 22.0721 14.0785 23.0095 14.0932C23.9468 14.1078 24.7232 13.7488 25.3388 13.016L29.3889 8.22385C29.7387 7.88679 30.1129 7.72925 30.5116 7.75123C30.9103 7.77321 31.2391 7.97105 31.4979 8.34475C31.7567 8.71845 31.8162 9.13246 31.6763 9.58676C31.9001 9.8652 32.2918 10.3268 32.8514 10.9717C33.411 11.6165 33.8307 12.1147 34.1105 12.4665C34.5163 12.994 35.0933 13.7671 35.8418 14.7856C36.5903 15.8041 37.0415 16.4233 37.1954 16.6431C37.9228 17.6103 38.3425 18.6362 38.4545 19.7206ZM44.4981 19.7206C45.0578 19.7206 45.4495 19.4862 45.6733 19.0172C45.8972 18.5483 45.8972 18.0793 45.6733 17.6103C45.4495 17.1414 45.0578 16.9069 44.4981 16.9069C43.9385 16.9069 43.5468 17.1414 43.323 17.6103C43.0991 18.0793 43.0991 18.5483 43.323 19.0172C43.5468 19.4862 43.9385 19.7206 44.4981 19.7206ZM48.5273 7.05878V21.1275C48.5273 21.5085 48.3944 21.8383 48.1286 22.1167C47.8628 22.3952 47.548 22.5344 47.1842 22.5344H38.0767C37.699 23.487 37.1254 24.2673 36.3559 24.8755C35.5865 25.4837 34.7121 25.8611 33.7328 26.0076C33.2711 26.7111 32.708 27.3082 32.0435 27.7992C31.379 28.2901 30.662 28.6235 29.8926 28.7994C29.305 29.5761 28.574 30.1733 27.6996 30.5909C26.8252 31.0086 25.9264 31.1881 25.003 31.1295C24.1636 31.6278 23.2823 31.9172 22.3589 31.9978C21.4356 32.0784 20.5437 31.9758 19.6833 31.6901C18.8229 31.4043 18.0045 31.0123 17.2281 30.514C16.4516 30.0157 15.7277 29.4222 15.0561 28.7334L9.03342 22.5344H1.52078C1.15704 22.5344 0.842261 22.3952 0.57645 22.1167C0.31064 21.8383 0.177734 21.5085 0.177734 21.1275V6.35535C0.177734 5.97432 0.31064 5.64458 0.57645 5.36614C0.842261 5.08769 1.15704 4.94847 1.52078 4.94847H10.3555C10.5513 4.7433 10.8801 4.39158 11.3418 3.89332C11.8034 3.39505 12.1357 3.04333 12.3386 2.83816C12.5414 2.63299 12.8492 2.33989 13.2619 1.95887C13.6746 1.57784 14.0279 1.30306 14.3217 1.13453C14.6154 0.965994 14.9722 0.779143 15.3919 0.573974C15.8116 0.368805 16.2453 0.225919 16.693 0.145317C17.1406 0.0647151 17.6163 0.0244141 18.1199 0.0244141H20.5752C21.9602 0.0244141 23.2263 0.434752 24.3735 1.25543C25.5207 0.434752 26.7868 0.0244141 28.1718 0.0244141H31.6763C32.1659 0.0244141 32.6346 0.0683789 33.0823 0.156308C33.53 0.244238 33.9252 0.350486 34.2679 0.475053C34.6107 0.59962 34.9709 0.793798 35.3487 1.05759C35.7264 1.32138 36.0377 1.54853 36.2825 1.73904C36.5273 1.92956 36.8281 2.21899 37.1849 2.60735C37.5416 2.9957 37.8144 3.30346 38.0033 3.53061C38.1921 3.75776 38.4789 4.10948 38.8637 4.58576C39.2484 5.06205 39.5387 5.41743 39.7345 5.65191H47.1842C47.548 5.65191 47.8628 5.79113 48.1286 6.06957C48.3944 6.34802 48.5273 6.67775 48.5273 7.05878Z" fill="#1A1A1A"/>
</g>
<defs>
<clipPath id="clip0_105_671">
<rect width="50" height="32.2034" fill="white" transform="translate(0.177734 0.0244141)"/>
</clipPath>
</defs>
</svg>
