<svg width="17" height="17" viewBox="0 0 17 17" fill="none" xmlns="http://www.w3.org/2000/svg">
<g clip-path="url(#clip0_75_98)">
<path d="M16.0839 0.986038C16.1203 0.895174 16.1292 0.795634 16.1095 0.699758C16.0898 0.603881 16.0425 0.515885 15.9732 0.446679C15.904 0.377472 15.816 0.330099 15.7202 0.310431C15.6243 0.290764 15.5248 0.299667 15.4339 0.336038L0.88689 6.15504H0.88589L0.43389 6.33504C0.348281 6.36919 0.273776 6.42633 0.218606 6.50017C0.163436 6.574 0.129748 6.66165 0.121264 6.75343C0.112779 6.8452 0.129828 6.93754 0.170527 7.02024C0.211227 7.10294 0.273992 7.17277 0.35189 7.22204L0.76189 7.48204L0.76289 7.48404L5.75789 10.662L8.93589 15.657L8.93789 15.659L9.19789 16.069C9.24731 16.1466 9.31719 16.2091 9.39982 16.2495C9.48246 16.29 9.57465 16.3068 9.66625 16.2983C9.75785 16.2897 9.84531 16.256 9.91899 16.2009C9.99268 16.1458 10.0497 16.0715 10.0839 15.986L16.0839 0.986038ZM14.2509 2.87604L6.75689 10.37L6.54189 10.032C6.5025 9.97001 6.44992 9.91743 6.38789 9.87804L6.04989 9.66304L13.5439 2.16904L14.7219 1.69804L14.2519 2.87604H14.2509Z" fill="black"/>
</g>
<defs>
<clipPath id="clip0_75_98">
<rect width="16" height="16" fill="white" transform="translate(0.119141 0.300049)"/>
</clipPath>
</defs>
</svg>
